<svg width="841" height="154" viewBox="0 0 841 154" fill="none" xmlns="http://www.w3.org/2000/svg">
<rect x="748.455" y="54.8153" width="16.1922" height="97.1529" fill="#FFCE00"/>
<rect x="750.51" y="57.5026" width="16.1922" height="120.263" transform="rotate(45 750.51 57.5026)" fill="#FFCE00"/>
<rect x="667.494" y="54.8153" width="97.1529" height="16.1922" fill="#FFCE00"/>
<path d="M633.441 54.8234H568.911V69.0482H593.096V151.968H609.256V69.0482H633.441V54.8234Z" fill="white"/>
<path fill-rule="evenodd" clip-rule="evenodd" d="M517.593 54.8234H488.783V151.968H504.943V113.687H513.623L542.922 151.968H560.085V148.795L531.603 111.507C537.412 109.368 542.013 105.921 545.397 101.165C548.926 96.3354 550.687 90.5804 550.687 83.9096C550.687 79.5549 549.899 75.6109 548.32 72.0809C546.743 68.4621 544.515 65.3976 541.636 62.8901C538.758 60.2905 535.278 58.2969 531.202 56.9072C527.124 55.517 522.587 54.8234 517.593 54.8234ZM504.943 99.462V69.0482H516.902C522.488 69.0482 526.713 70.5128 529.612 73.4113L529.614 73.4136C532.519 76.2284 533.975 79.8137 533.975 84.186C533.975 88.5564 532.475 92.1884 529.476 95.0967L529.473 95.0989C526.575 97.9975 522.35 99.462 516.764 99.462H504.943Z" fill="white"/>
<path fill-rule="evenodd" clip-rule="evenodd" d="M412.485 53.4414C404.816 53.4414 397.879 54.7351 391.679 57.3261C385.482 59.8236 380.161 63.3397 375.718 67.875C371.368 72.3177 367.99 77.5925 365.586 83.6969C363.18 89.7113 361.978 96.2322 361.978 103.258C361.978 110.467 363.18 117.126 365.586 123.233C367.99 129.337 371.368 134.612 375.718 139.055L375.719 139.056C380.162 143.499 385.483 146.969 391.68 149.466C397.88 151.965 404.816 153.212 412.485 153.212C420.063 153.212 426.953 151.964 433.153 149.466L433.155 149.465C439.351 146.876 444.671 143.36 449.113 138.918L449.115 138.917C453.556 134.383 456.98 129.108 459.385 123.095L459.385 123.094C461.791 116.988 462.993 110.422 462.993 103.396C462.993 96.1862 461.745 89.5268 459.247 83.4199C456.842 77.3149 453.418 72.0398 448.975 67.5971C444.532 63.1542 439.211 59.6846 433.015 57.1875C426.815 54.6891 419.971 53.4414 412.485 53.4414ZM398.881 70.4149C403.093 68.6751 407.627 67.8044 412.485 67.8044C417.344 67.8044 421.831 68.6751 425.95 70.4143L425.954 70.4157C430.074 72.0638 433.643 74.4435 436.663 77.5552C439.683 80.6661 442.018 84.4192 443.667 88.8177L443.669 88.8225C445.409 93.1254 446.28 97.9362 446.28 103.258C446.28 108.671 445.409 113.574 443.669 117.97C441.928 122.277 439.546 125.986 436.525 129.098C433.505 132.21 429.935 134.636 425.814 136.377C421.694 138.024 417.252 138.849 412.485 138.849C407.534 138.849 403 138.024 398.881 136.377C394.76 134.636 391.19 132.21 388.169 129.098C385.149 125.987 382.768 122.233 381.027 117.834C379.378 113.438 378.552 108.58 378.552 103.258C378.552 97.9354 379.378 93.1238 381.026 88.8201C382.768 84.4207 385.149 80.6667 388.169 77.5552C391.189 74.4435 394.759 72.0638 398.879 70.4157L398.881 70.4149Z" fill="white"/>
<path fill-rule="evenodd" clip-rule="evenodd" d="M310.165 54.8234H281.769V151.968H297.929V115.207H309.612C314.882 115.207 319.604 114.467 323.776 112.984L323.778 112.983C328.037 111.409 331.654 109.278 334.624 106.586C337.595 103.894 339.869 100.644 341.446 96.8397C343.024 93.0357 343.811 88.9092 343.811 84.4624C343.811 80.016 343.024 75.9805 341.445 72.3589C339.868 68.647 337.593 65.5354 334.621 63.0271C331.742 60.4278 328.217 58.4348 324.05 57.0456C319.88 55.5631 315.251 54.8234 310.165 54.8234ZM297.929 100.844V69.0482H308.506C311.712 69.0482 314.496 69.5063 316.864 70.4167L316.867 70.4179L316.87 70.4191C319.243 71.2406 321.198 72.3788 322.74 73.8302L322.743 73.8324L322.745 73.8346C324.287 75.1951 325.419 76.8262 326.145 78.7301L326.146 78.7339L326.148 78.7377C326.966 80.6461 327.375 82.6918 327.375 84.877C327.375 89.339 325.83 93.1107 322.736 96.2045C319.655 99.2852 314.971 100.844 308.644 100.844H297.929Z" fill="white"/>
<path fill-rule="evenodd" clip-rule="evenodd" d="M223.46 54.8234H195.065V151.968H211.225V115.207H222.907C228.178 115.207 232.9 114.467 237.072 112.984L237.074 112.983C241.333 111.409 244.949 109.278 247.919 106.586C250.89 103.894 253.165 100.644 254.742 96.8397C256.319 93.0358 257.107 88.9092 257.107 84.4624C257.107 80.016 256.32 75.9805 254.741 72.3589C253.163 68.647 250.888 65.5354 247.917 63.0271C245.038 60.4278 241.513 58.4348 237.346 57.0456C233.176 55.5631 228.546 54.8234 223.46 54.8234ZM211.225 100.844V69.0482H221.802C225.008 69.0482 227.792 69.5063 230.159 70.4167L230.163 70.4179L230.166 70.4191C232.539 71.2406 234.494 72.3788 236.036 73.8302L236.038 73.8324L236.041 73.8346C237.583 75.1951 238.715 76.8262 239.44 78.7301L239.442 78.7339L239.444 78.7377C240.261 80.6461 240.671 82.6918 240.671 84.877C240.671 89.339 239.125 93.1107 236.031 96.2045C232.951 99.2852 228.267 100.844 221.94 100.844H211.225Z" fill="white"/>
<path d="M105.728 54.8234H89.5687V113.484C89.5687 119.582 90.354 125.086 91.9277 129.992L91.9288 129.995C93.5951 134.902 96.0036 139.118 99.156 142.641L99.1598 142.646C102.406 146.077 106.346 148.719 110.979 150.572C115.614 152.426 120.984 153.35 127.085 153.35C132.819 153.35 137.959 152.425 142.501 150.571C147.134 148.718 151.029 146.076 154.183 142.643L154.185 142.641C157.337 139.118 159.746 134.902 161.412 129.995L161.413 129.994C163.079 124.995 163.91 119.353 163.91 113.07V54.8234H148.304V112.932C148.304 121.381 146.375 127.68 142.552 131.867L142.551 131.869C138.819 136.056 133.627 138.158 126.947 138.158C120.175 138.158 114.937 136.055 111.206 131.87C107.567 127.685 105.728 121.155 105.728 112.241V54.8234Z" fill="white"/>
<path d="M35.4434 53.4414C30.9115 53.4414 26.7451 54.0425 22.9457 55.247C19.2379 56.3595 16.035 58.0297 13.3405 60.2597L13.3378 60.2619C10.7348 62.4931 8.69046 65.2351 7.20466 68.4853C5.71658 71.7404 4.97514 75.4553 4.97514 79.6254C4.97514 84.9041 6.08639 89.1861 8.32742 92.4543L8.32899 92.4565C10.5557 95.6111 13.3391 98.255 16.6774 100.388L16.6801 100.39L16.6829 100.391C20.1023 102.424 23.7521 104.18 27.6321 105.658L27.6361 105.659C31.4988 107.039 35.0844 108.556 38.3932 110.21L38.3962 110.212L38.3992 110.213C41.7891 111.771 44.5771 113.692 46.7679 115.974L46.7708 115.977C48.9364 118.143 50.0284 121.081 50.0284 124.817C50.0284 128.911 48.621 132.217 45.8109 134.755L45.8085 134.757C43.0956 137.29 39.0537 138.573 33.6468 138.573C28.4269 138.573 24.046 137.383 20.4928 135.014C17.0107 132.631 14.0799 129.792 11.6988 126.495L11.5588 126.301L0.352173 137.65L0.453252 137.788C1.93621 139.828 3.69619 141.773 5.73239 143.624C7.77224 145.478 10.1348 147.145 12.8189 148.626L12.8238 148.629C15.5113 150.019 18.5207 151.13 21.8507 151.962L21.8519 151.963C25.2793 152.796 29.1193 153.212 33.3704 153.212C38.0878 153.212 42.4851 152.565 46.5607 151.268C50.6367 149.971 54.1615 148.07 57.1318 145.564C60.1966 143.057 62.5647 139.945 64.2353 136.232C65.9077 132.516 66.7408 128.202 66.7408 123.297C66.7408 117.835 65.5839 113.37 63.2529 109.919C61.0274 106.396 58.2442 103.52 54.9036 101.293C51.5725 99.0719 47.9185 97.2681 43.9423 95.8808C39.9846 94.4081 36.3498 92.9358 33.038 91.4639C29.7358 89.9962 26.9432 88.3016 24.6573 86.3818C22.4956 84.4896 21.4111 81.9682 21.4111 78.7962C21.4111 75.4445 22.6301 72.8344 25.063 70.9415C27.5966 69.0419 31.0496 68.0808 35.4434 68.0808C39.3784 68.0808 42.7523 68.8586 45.5728 70.4053L45.5752 70.4066C48.5007 71.9607 51.0606 74.0177 53.2557 76.5785L53.3979 76.7445L63.7702 66.3723L63.6551 66.2306C62.4489 64.746 60.9668 63.2642 59.2103 61.7847C57.5381 60.2062 55.5437 58.8156 53.2291 57.6117C50.9088 56.3127 48.267 55.2937 45.3054 54.5532C42.4294 53.8111 39.1414 53.4414 35.4434 53.4414Z" fill="white"/>
<path fill-rule="evenodd" clip-rule="evenodd" d="M814.056 0C817.807 7.72254e-06 821.299 0.595967 824.529 1.78921C827.837 2.909 830.696 4.58985 833.104 6.83217C835.587 9.07415 837.505 11.8379 838.857 15.1209C840.287 18.4086 841 22.1407 841 26.3136C841 29.0703 840.7 31.7164 840.099 34.2516C839.499 36.7839 838.637 39.3524 837.513 41.9569L837.513 41.9585C836.389 44.4875 835.041 47.0528 833.469 49.6545C831.899 52.2531 830.18 54.9631 828.311 57.7838L828.311 57.7841L814.193 78.9271L814.144 79H801.006V77.6742L801.035 77.6325L821.831 47.2535C820.267 48.0692 818.585 48.7091 816.787 49.1723L816.786 49.172C814.829 49.6951 812.724 49.9563 810.471 49.9563C807.463 49.9563 804.53 49.4334 801.674 48.3883L801.672 48.388C798.887 47.3414 796.403 45.7712 794.221 43.6789C792.038 41.5855 790.271 39.0079 788.919 35.9491L788.917 35.9459C787.638 32.8811 787 29.3725 787 25.4233C787 21.2506 787.713 17.5918 789.144 14.4509L789.144 14.4493C790.647 11.24 792.641 8.5867 795.126 6.49285C797.53 4.39505 800.287 2.823 803.395 1.7768L803.697 1.67717C807 0.558937 810.454 0 814.056 0ZM813.944 10.8976C811.946 10.8976 810.061 11.2281 808.287 11.8885C806.514 12.5488 804.964 13.5021 803.636 14.7479L803.632 14.751C802.306 15.9216 801.236 17.3866 800.423 19.1485C799.687 20.9044 799.318 22.9208 799.318 25.2008C799.318 29.69 800.687 33.204 803.411 35.7635L803.676 36.0004C806.437 38.408 809.894 39.6154 814.056 39.6154C816.13 39.6154 818.052 39.2844 819.825 38.6242L819.827 38.6235C821.676 37.9625 823.262 37.0456 824.589 35.8746C825.916 34.6302 826.948 33.1293 827.687 31.3696C828.424 29.6125 828.795 27.5942 828.795 25.3119C828.795 23.0316 828.387 21.0153 827.577 19.2596L827.576 19.257L827.575 19.2545C826.836 17.4941 825.803 15.9925 824.476 14.7479C823.149 13.5032 821.563 12.5501 819.715 11.8895L819.713 11.8885C817.94 11.2283 816.018 10.8976 813.944 10.8976Z" fill="#FFCE00"/>
</svg>
